<mxfile host="Electron" modified="2023-07-30T13:46:12.921Z" agent="Mozilla/5.0 (Windows NT 10.0; Win64; x64) AppleWebKit/537.36 (KHTML, like Gecko) draw.io/21.6.5 Chrome/114.0.5735.243 Electron/25.3.1 Safari/537.36" version="21.6.5" etag="NA74x52tnJCmHRHboW7M" type="device">
  <diagram id="zaCQ-BPGA68TuiHrWeOr" name="PÃ¡gina-1">
    <mxGraphModel dx="523" dy="413" grid="1" gridSize="10" guides="1" tooltips="1" connect="1" arrows="1" fold="1" page="1" pageScale="1" pageWidth="827" pageHeight="1169" math="0" shadow="0">
      <root>
        <mxCell id="0" />
        <mxCell id="1" parent="0" />
        <mxCell id="BTBLgqH72Z7oePHduHFQ-4" value="" style="endArrow=classic;html=1;rounded=0;" edge="1" parent="1">
          <mxGeometry relative="1" as="geometry">
            <mxPoint x="250" y="360" as="sourcePoint" />
            <mxPoint x="350" y="360" as="targetPoint" />
          </mxGeometry>
        </mxCell>
        <mxCell id="BTBLgqH72Z7oePHduHFQ-6" value="Input" style="edgeLabel;html=1;align=center;verticalAlign=middle;resizable=0;points=[];" vertex="1" connectable="0" parent="BTBLgqH72Z7oePHduHFQ-4">
          <mxGeometry x="0.0448" relative="1" as="geometry">
            <mxPoint as="offset" />
          </mxGeometry>
        </mxCell>
        <mxCell id="BTBLgqH72Z7oePHduHFQ-8" value="" style="whiteSpace=wrap;html=1;aspect=fixed;" vertex="1" parent="1">
          <mxGeometry x="370" y="340" width="80" height="80" as="geometry" />
        </mxCell>
        <mxCell id="BTBLgqH72Z7oePHduHFQ-9" value="" style="endArrow=classic;html=1;rounded=0;" edge="1" parent="1">
          <mxGeometry relative="1" as="geometry">
            <mxPoint x="250" y="380" as="sourcePoint" />
            <mxPoint x="350" y="380" as="targetPoint" />
          </mxGeometry>
        </mxCell>
        <mxCell id="BTBLgqH72Z7oePHduHFQ-10" value="Input" style="edgeLabel;html=1;align=center;verticalAlign=middle;resizable=0;points=[];" vertex="1" connectable="0" parent="BTBLgqH72Z7oePHduHFQ-9">
          <mxGeometry x="0.0448" relative="1" as="geometry">
            <mxPoint as="offset" />
          </mxGeometry>
        </mxCell>
        <mxCell id="BTBLgqH72Z7oePHduHFQ-11" value="" style="endArrow=classic;html=1;rounded=0;" edge="1" parent="1">
          <mxGeometry relative="1" as="geometry">
            <mxPoint x="250" y="400" as="sourcePoint" />
            <mxPoint x="350" y="400" as="targetPoint" />
          </mxGeometry>
        </mxCell>
        <mxCell id="BTBLgqH72Z7oePHduHFQ-12" value="Input" style="edgeLabel;html=1;align=center;verticalAlign=middle;resizable=0;points=[];" vertex="1" connectable="0" parent="BTBLgqH72Z7oePHduHFQ-11">
          <mxGeometry x="0.0448" relative="1" as="geometry">
            <mxPoint as="offset" />
          </mxGeometry>
        </mxCell>
        <mxCell id="BTBLgqH72Z7oePHduHFQ-13" value="" style="endArrow=classic;html=1;rounded=0;" edge="1" parent="1">
          <mxGeometry relative="1" as="geometry">
            <mxPoint x="460" y="379.76" as="sourcePoint" />
            <mxPoint x="560" y="379.76" as="targetPoint" />
          </mxGeometry>
        </mxCell>
        <mxCell id="BTBLgqH72Z7oePHduHFQ-14" value="output" style="edgeLabel;html=1;align=center;verticalAlign=middle;resizable=0;points=[];" vertex="1" connectable="0" parent="BTBLgqH72Z7oePHduHFQ-13">
          <mxGeometry x="0.0448" relative="1" as="geometry">
            <mxPoint as="offset" />
          </mxGeometry>
        </mxCell>
        <mxCell id="BTBLgqH72Z7oePHduHFQ-15" value="" style="endArrow=classic;html=1;rounded=0;" edge="1" parent="1">
          <mxGeometry relative="1" as="geometry">
            <mxPoint x="409.76" y="250" as="sourcePoint" />
            <mxPoint x="409.76" y="320" as="targetPoint" />
          </mxGeometry>
        </mxCell>
        <mxCell id="BTBLgqH72Z7oePHduHFQ-16" value="Answer" style="edgeLabel;html=1;align=center;verticalAlign=middle;resizable=0;points=[];" vertex="1" connectable="0" parent="BTBLgqH72Z7oePHduHFQ-15">
          <mxGeometry x="0.0448" relative="1" as="geometry">
            <mxPoint as="offset" />
          </mxGeometry>
        </mxCell>
      </root>
    </mxGraphModel>
  </diagram>
</mxfile>
